<svg viewBox="327.0693 159.8948 319.8624 199.7856" width="5000" height="3122.9928869413848" xmlns="http://www.w3.org/2000/svg" xmlns:xlink="http://www.w3.org/1999/xlink" preserveAspectRatio="none"><defs></defs><style>.aD6z1nYkhstrokeColor-str {stroke:#8C94CC;stroke-opacity:1;}.afMs7LIazgcolors-0 {fill:#333258;fill-opacity:1;}.ax3dO9LSiPcolors-0 {fill:#8CCC9A;fill-opacity:1;}.companyName {fill:#333258;fill-opacity:1;}.icon2 {fill:#F36958;fill-opacity:1;}.icon3 {fill:#8C94CC;fill-opacity:1;}.icon3-str {stroke:#8C94CC;stroke-opacity:1;}.icon4 {fill:#333258;fill-opacity:1;}.icon5 {fill:#F36958;fill-opacity:1;}.icon6 {fill:#8C94CC;fill-opacity:1;}.icon7 {fill:#333258;fill-opacity:1;}.icon8 {fill:#F36958;fill-opacity:1;}.text {fill:#333258;fill-opacity:1;}</style><g opacity="1" transform="rotate(0 327.0693 249.9059)">
<svg width="319.8624" height="84.9552" x="327.0693" y="249.9059" version="1.1" preserveAspectRatio="none" viewBox="3.08 -27.36 124.92 35.400000000000006">
  <g transform="matrix(1 0 0 1 0 0)" class="companyName"><path id="id-D6z1nYkh6" d="M12.20-27.36Q17.04-27.36 20-25.14Q22.96-22.92 22.96-17.16L22.96-17.16Q22.96-12.60 21.54-8.72Q20.12-4.84 16.94-2.42Q13.76 0 8.76 0L8.76 0L3.08 0L6.96-27.36L12.20-27.36ZM12.20-25.72L8.60-25.72L5.28-1.64L9.04-1.64Q13.32-1.64 16-3.90Q18.68-6.16 19.86-9.68Q21.04-13.20 21.04-17.20L21.04-17.20Q21.04-22.20 18.62-23.96Q16.20-25.72 12.20-25.72L12.20-25.72Z M40.08-21.28Q42-21.28 43.46-20.86Q44.92-20.44 46.52-19.60L46.52-19.60L44.32-4.48Q44.20-3.72 44.20-3.12L44.20-3.12Q44.20-2.28 44.50-1.74Q44.80-1.20 45.56-0.92L45.56-0.92L45.04 0.44Q43.80 0.08 43.16-0.64Q42.52-1.36 42.52-2.84L42.52-2.84L42.56-3.44Q41.32-1.64 39.66-0.60Q38 0.44 36.04 0.44L36.04 0.44Q32.96 0.44 31.22-1.72Q29.48-3.88 29.48-7.68L29.48-7.68Q29.48-10.80 30.58-13.94Q31.68-17.08 34.06-19.18Q36.44-21.28 40.08-21.28L40.08-21.28ZM40.12-19.76Q37.12-19.76 35.18-17.88Q33.24-16 32.34-13.22Q31.44-10.44 31.44-7.72L31.44-7.72Q31.44-4.52 32.70-2.84Q33.96-1.16 36.24-1.16L36.24-1.16Q38.16-1.16 39.74-2.34Q41.32-3.52 42.72-5.80L42.72-5.80L44.56-18.68Q42.64-19.76 40.12-19.76L40.12-19.76Z M70.40-20.88L60.32 0.16Q58.64 3.72 56.66 5.48Q54.68 7.24 51.08 8.04L51.08 8.04L50.96 6.56Q53.12 6 54.40 5.22Q55.68 4.44 56.54 3.28Q57.40 2.12 58.52 0L58.52 0L57.80 0L53.44-20.88L55.40-20.88L59.24-1.40L68.40-20.88L70.40-20.88Z M75.20-20.88L88.32-20.88L88.12-19.40L73.84-1.64L85.44-1.64L85.04 0L71.24 0L71.48-1.48L85.76-19.24L74.96-19.24L75.20-20.88Z M93.84-20.88L106.96-20.88L106.76-19.40L92.48-1.64L104.08-1.64L103.68 0L89.88 0L90.12-1.48L104.40-19.24L93.60-19.24L93.84-20.88Z M128-20.88L117.92 0.16Q116.24 3.72 114.26 5.48Q112.28 7.24 108.68 8.04L108.68 8.04L108.56 6.56Q110.72 6 112 5.22Q113.28 4.44 114.14 3.28Q115 2.12 116.12 0L116.12 0L115.40 0L111.04-20.88L113-20.88L116.84-1.40L126-20.88L128-20.88Z"/></g>
</svg>
</g><g opacity="0.89" transform="rotate(0 437 165.7592)">
<svg width="100" height="93.2584" x="437" y="165.7592" version="1.1" preserveAspectRatio="none" viewBox="0.7442868947982788 1.0717936754226685 3.476489543914795 3.242117404937744">
  <g transform="matrix(1 0 0 1 0 0)" class="ax3dO9LSiPcolors-0"><title>icon</title><path d="M4.17448,2.07388a.2136.2136,0,0,0-.139-.06594.80782.80782,0,0,0-.35471.06547c-.03151.01114-.06273.02312-.09382.03556q.07168-.05763.1412-.11786a.04071.04071,0,0,0-.03155-.07122.58194.58194,0,0,0-.25008.11344c-.08533.05583-.16506.10729-.24905.16877l-.03328.02456q.07789-.12187.15412-.24491c.04676-.07553.09087-.15263.13807-.22782.03282-.05225.06591-.10431.09634-.15806A1.04224,1.04224,0,0,0,3.642,1.4036a.24281.24281,0,0,0,.00622-.16948.14727.14727,0,0,0-.17989-.067.71417.71417,0,0,0-.24211.13547q-.04653.03568-.09106.07385a.43682.43682,0,0,0-.056-.14346.41083.41083,0,0,0-.41755-.15092,1.16874,1.16874,0,0,0-.54206.24086q-.02784.0207-.05491.04249-.03973-.01893-.08023-.03609a1.21294,1.21294,0,0,0-.51976-.111.48386.48386,0,0,0-.38607.1912A.43317.43317,0,0,0,1.033,1.744a1.20513,1.20513,0,0,0,.15035.35556,2.36253,2.36253,0,0,0,.133.20015,2.8938,2.8938,0,0,0-.21591.48065.68119.68119,0,0,0-.031.11859Q1.02548,2.9574.984,3.01739A2.47289,2.47289,0,0,0,.82227,3.284c-.0227.04372-.04384.08844-.06236.13407a.15192.15192,0,0,0-.00937.11024c.025.06605.11461.0523.16748.03967.08473-.02021.16875-.049.25116-.07686a4.96179,4.96179,0,0,0,.617-.26l-.01382.0443c-.008.02676-.015.05375-.02168.08088l-.00081.00716q-.092.10139-.17719.20875a.04277.04277,0,0,0,.00163.052.04336.04336,0,0,0,.06012.006,6.182,6.182,0,0,0,.53109-.43807l.0667-.06006c.06163.037.12479.07171.18939.10348-.22253.34308-.44127.68923-.68675,1.01661a.03939.03939,0,0,0,.03745.06142.1426.1426,0,0,0,.077-.03293.03775.03775,0,0,0,.00274-.05637c.2248-.31031.42815-.63541.635-.95791a2.0664,2.0664,0,0,0,.26636.09973,1.05868,1.05868,0,0,0,.38687.04444.57949.57949,0,0,0,.13723-.02715c-.003.033.04877.03777.05424.004L3.336,3.35844a.25755.25755,0,0,0,.10858-.10315.36454.36454,0,0,0-.00409-.31237l.007-.00309a1.74455,1.74455,0,0,0,.26688-.14773,2.32453,2.32453,0,0,0,.30124-.234.57433.57433,0,0,0,.20314-.32429A.20833.20833,0,0,0,4.17448,2.07388Zm-3.01585.919L1.1533,2.98909,1.153,2.98886l-.00037-.00042-.00445-.00552L1.1475,2.98156l-.00323-.00751L1.14366,2.9726l-.00319-.02089L1.14013,2.9454l.00016-.00718.00013-.00278c.07837-.105.16241-.2059.24917-.30376q.05142-.058.10557-.11374c.06665.07337.13711.14359.20949.211q-.0463.03642-.09393.07092a1.44606,1.44606,0,0,1-.24777.14687.66941.66941,0,0,1-.12357.04437l-.03017.0058a.14957.14957,0,0,1-.02022.00173l-.02138-.00225C1.17541,2.99784,1.15346,2.98942,1.15863,2.9929ZM1.7103,2.639c-.057-.05457-.11287-.11112-.16671-.16976A2.661,2.661,0,0,1,1.753,2.28339q-.00454.02724-.00741.05467a.80558.80558,0,0,0,.03454.3297l-.02091.01731Zm.45113-1.152q.07073.04038.13819.086l-.00578.00191a.76747.76747,0,0,0-.33984.25919.99722.99722,0,0,0-.175.336,2.55893,2.55893,0,0,0-.28529.24354q-.04889-.05591-.09475-.11422.05407-.09634.114-.1892a3.32642,3.32642,0,0,1,.37329-.48191A2.33671,2.33671,0,0,1,2.081,1.44326Q2.12178,1.46444,2.16143,1.487Zm.78626.45533a.58418.58418,0,0,0-.05637-.02553A.70762.70762,0,0,0,2.756,1.879l-.012-.01273.00012-.00015c.106-.12227.21462-.24306.33209-.35486a1.0856,1.0856,0,0,1-.11283.397Zm.08292.16443A.27136.27136,0,0,1,3.072,2.1973a.33828.33828,0,0,1,.0073.04248l-.0218.03329q-.054-.08754-.11536-.17051L2.97274,2.047A.31669.31669,0,0,1,3.03061,2.10679Zm-.00645.69715-.00444.01483a.24472.24472,0,0,1-.01441.03471l-.00089.0015-.00428.007-.00922.01331-.01.0123-.00049.00056-.00723.00692a.19877.19877,0,0,1-.02421.019l-.00232.00148-.00426.00236-.01623.008-.0145.00587L2.9,2.93576l-.03053.00639c-.01116.00175-.02243.00278-.0337.00342l-.00421.00021-.0061,0c-.00692,0-.0138-.00021-.02072-.00054a.48491.48491,0,0,1-.07674-.01055l-.0094-.00211L2.71737,2.9323l-.00183-.00047-.00966-.00253q.09957-.152.19956-.30386a.56058.56058,0,0,0,.10219-.06451l.00129.00089.00463.01576a.58489.58489,0,0,1,.0193.1242c.00061.01071.00054.00943.00051.0181,0,.00755-.00026.01516-.00063.02276a.37661.37661,0,0,1-.00524.04554l-.00192.00973Zm-.44723.07485L2.56765,2.874l-.0018-.00094L2.564,2.8721l-.01825-.01043-.00741-.0044q.07119-.063.14319-.12518L2.69679,2.719l.06891-.04205.03038-.00856q-.07922.1189-.15832.238C2.61707,2.89815,2.59682,2.88889,2.57692,2.87879Zm-.3413.13734-.00217-.0007-.00054-.00019L2.285,2.9719ZM1.84926,2.2108l.00215-.00154a1.43965,1.43965,0,0,1,.55948-.25137l.04486-.00754a.8746.8746,0,0,1-.07728.12669.3288.3288,0,0,0-.23507.15857.27473.27473,0,0,0-.02928.13423l-.0727.069c-.06266.05906-.12834.11529-.19354.17152L1.84635,2.6044c-.00421-.0167-.00779-.03357-.011-.05052a.79733.79733,0,0,1-.01347-.12124A.75327.75327,0,0,1,1.84926,2.2108Zm.36789-.51666.00589-.0036.00923-.00538.019-.01039c.01394-.00737.02813-.01406.04259-.02024a.29048.29048,0,0,1,.07721-.0237l.00828-.00124q.06434.04777.1253.1l.00143.0153a.351.351,0,0,1-.01857.127q-.03175.00342-.063.00855a1.45331,1.45331,0,0,0-.53519.215.98353.98353,0,0,1,.086-.1593.8732.8732,0,0,1,.1747-.19356A.69248.69248,0,0,1,2.21715,1.69414Zm-.02063.74429-.00043-.00126-.002-.00763a.2665.2665,0,0,1-.006-.03532,2.25623,2.25623,0,0,0,.22662-.25151l.02039-.00247q-.04554.05926-.09021.11918l-.01558.02079-.023.01051a.20326.20326,0,0,0-.102.16064l-.00209.003-.0004-.00092Zm.00256-.15219a.19618.19618,0,0,1,.03277-.05506.23339.23339,0,0,1,.06544-.05126C2.26583,2.21649,2.23294,2.25179,2.19908,2.28624Zm.16349.06308.00667-.00226.011-.0026a.2781.2781,0,0,1,.09157-.00423.78092.78092,0,0,1,.19729.04613c-.063.08193-.12967.16078-.19874.23745l-.01965-.00295-.03539-.00716-.00051-.00012L2.41291,2.6131l-.00856-.00227L2.38481,2.605A.43466.43466,0,0,1,2.3196,2.5783L2.316,2.57638l-.005-.00276-.0138-.00842-.00981-.00657c-.00274-.01144-.00483-.023-.00642-.03464l-.002-.01881L2.2785,2.49568l-.00011-.00206V2.49288a.2664.2664,0,0,1,.00155-.03052q.04016-.05672.081-.11246Zm.24391.279-.00542.00044-.0193.00094L2.57212,2.63l-.00049,0-.00271,0H2.56019l.03141-.03621q.076-.08848.14656-.18145a1.19858,1.19858,0,0,1,.11945.05685Q2.72984,2.54515,2.60648,2.62828Zm-.10967.07279.00426.00033L2.48773,2.711ZM2.3335,2.66418a.567.567,0,0,0,.0784.02353l-.034.03616A.53683.53683,0,0,1,2.3335,2.66418Zm.589-.246L2.9152,2.41405c-.042-.02362-.08558-.04563-.13026-.0653q.02214-.03105.04357-.06257a.66156.66156,0,0,1,.106.122Zm-.20478-.09672a.98242.98242,0,0,0-.21242-.05458.50044.50044,0,0,0-.0799-.00468c.03048-.04116.06124-.08215.0926-.12259a.45467.45467,0,0,1,.1729.05168.60818.60818,0,0,1,.083.05071Q2.74647,2.28216,2.71777,2.32146Zm-.51868.25816.021.01939a.509.509,0,0,0,.10408.17975l.00056.00065q-.07633.07887-.15476.15578L2.11683,2.965,2.11339,2.963l-.01906-.01137a.59566.59566,0,0,1-.06424-.04577L2.0156,2.89361l-.004-.00367A3.53325,3.53325,0,0,1,2.19909,2.57963Zm.80946-.23187-.01614.01305a.7237.7237,0,0,0-.04984-.06371A.77023.77023,0,0,0,2.86938,2.224q.01832-.02875.036-.05813l.00744.01023q.05515.07654.105.15771Zm-.194-.16718a.59973.59973,0,0,0-.24487-.10631L2.578,2.064q.04944-.06075.1-.1206c.01764.00172.03516.00392.05263.00688q.068.07536.12988.1557Q2.83818,2.14374,2.81455,2.18058Zm-.27724-.16909-.04507.0556q-.01224-.00024-.02451.00014a.85608.85608,0,0,0,.06788-.12549q.03088-.00209.06184-.00212Q2.56721,1.97541,2.53732,2.01149Zm-.41663.44775.00525-.005a.29214.29214,0,0,0,.02908.06795c-.06962.10156-.13571.20585-.1948.31358-.01146-.01392-.02216-.02835-.03228-.04327l-.00942-.01445-.00778-.01312c-.00744-.01291-.01424-.0262-.02071-.0396s-.01241-.0272-.01789-.04107C1.95731,2.61177,2.04,2.5361,2.12069,2.45924Zm.77583-.41662q-.0253-.0321-.05155-.06337l.01955.00716a.46028.46028,0,0,1,.04989.02264Zm-.33459-.17614a.43168.43168,0,0,0,.01336-.07376q.03926.03631.07681.0744C2.62206,1.8655,2.59193,1.86533,2.56192,1.86649ZM2.03329,3.01113q-.05366.02926-.1077.05782.02249-.05235.04754-.10352A.59982.59982,0,0,0,2.03329,3.01113Zm.44454.049a1.12642,1.12642,0,0,1-.14523-.0186q.07276-.06568.14576-.131a.78971.78971,0,0,0,.11615.06112l-.05992.09082C2.51568,3.06216,2.49676,3.06132,2.47784,3.06017Zm.004.083-.02047.03137q-.04077-.01954-.08072-.0407C2.41412,3.13839,2.448,3.14145,2.48183,3.14318Zm.18-.14661a.45225.45225,0,0,0,.27368.00847.265.265,0,0,0,.17285-.23561.52581.52581,0,0,0-.00351-.13571,1.16056,1.16056,0,0,1,.101.0933,1.62372,1.62372,0,0,1,.05565.20115q-.033.012-.06643.02311a2.302,2.302,0,0,1-.35688.08785c-.06163.01-.12371.01712-.186.021l-.03289.00168Zm.64294-.148c.01116.01647.0217.03361.03139.05122l-.01838.00727Q3.31188,2.87766,3.30481,2.84857Zm-.232-.33585L3.06864,2.502A.3607.3607,0,0,0,3.094,2.4686q.02424.04645.046.09417C3.11811,2.54541,3.09563,2.52876,3.07282,2.51271Zm.17033-1.14813q.03108-.025.06343-.0483l.02949-.02067.0146-.00957.00723-.00461.00678-.00422a.50345.50345,0,0,1,.10951-.05194L3.475,1.225l.00589-.00154.01181-.00271.02454-.0034.0051-.00029.01034.00046.01008.0012.00494.00092.00023,0,.00049.00015.01752.00676.00384.00237.00921.00685.00185.00148.00138.00143.007.00793.00409.00571c-.00362-.00543.00087.00187.00124.00264l.0033.0073.00243.0073a.27013.27013,0,0,1-.02821.15808,1.304,1.304,0,0,1-.09658.184c-.028.046-.0581.09052-.08605.13653-.057.09385-.11449.18737-.1735.28q-.03933.0617-.07915.12323a.35454.35454,0,0,0-.05847-.1058.36564.36564,0,0,0-.0709-.06653A1.51445,1.51445,0,0,0,3.127,1.652a.71036.71036,0,0,0,.01775-.20376Q3.19279,1.40521,3.24315,1.36458ZM2.349,1.25944a.98339.98339,0,0,1,.27144-.09964.52568.52568,0,0,1,.25579.00333.26354.26354,0,0,1,.14684.111.3683.3683,0,0,1,.03642.08326.43871.43871,0,0,1,.01368.07376,4.83654,4.83654,0,0,0-.35892.37344l-.01441.01636q-.06207-.06224-.12822-.12a.17224.17224,0,0,0-.10229-.13547.19032.19032,0,0,0-.08243-.01088A2.09893,2.09893,0,0,0,2.13437,1.4,1.5,1.5,0,0,1,2.349,1.25944Zm-1.26923.37849A.34937.34937,0,0,1,1.104,1.48629a.30366.30366,0,0,1,.10266-.12558.59619.59619,0,0,1,.47047-.06564,1.45583,1.45583,0,0,1,.335.11412,2.67388,2.67388,0,0,0-.31374.326,3.61942,3.61942,0,0,0-.34675.50184,2.05294,2.05294,0,0,1-.15941-.2521A.85584.85584,0,0,1,1.07977,1.63794Zm.14247,1.026a3.28751,3.28751,0,0,1,.14208-.30117l.02021.02561q.02977.03719.061.07344-.0387.0394-.07619.07995-.09206.09925-.17892.20382Q1.20554,2.70445,1.22224,2.66395Zm-.39629.83181c.0044.00571.00165.0032,0,0Zm.50194-.1489q-.15651.06147-.3177.10982c-.03489.01048-.06178.01944-.0924.02739-.01516.004-.03051.00739-.046.01l-.021.00257-.00742.00047c.00587-.00033-.00516-.0003-.00708-.00047l-.0082-.001H.828l-.0023-.00082-.0004-.00189L.82537,3.4915a.34585.34585,0,0,1,.04209-.11344,2.19971,2.19971,0,0,1,.147-.262q.03289-.0508.06777-.10034a.10822.10822,0,0,0,.02985.035.14264.14264,0,0,0,.099.02063.494.494,0,0,0,.1307-.03621,1.03136,1.03136,0,0,0,.127-.05957,1.89774,1.89774,0,0,0,.25047-.16717L1.75816,2.778l.00253.00229q.0769.06943.15809.13386c-.03424.06741-.06555.13622-.093.20658C1.66328,3.20353,1.49781,3.28011,1.32789,3.34686Zm.62646-.2019-.04009.03892-.05111.04984.01721-.05019Zm.04535.08172q.07552-.07347.15446-.14329l.00387.00248-.01484.01333Q2.07189,3.16341,1.9997,3.22669ZM3.2359,3.318c.00451-.00136-.00484.00136-.00557.00152l-.02079.00508c-.01551.00344-.03113.00608-.04682.00828-.01485.00206-.02982.00351-.04479.00463-.01579.00119-.03338.00182-.04372.00192a1.02846,1.02846,0,0,1-.18782-.01656,1.33676,1.33676,0,0,1-.21427-.06053q-.07378-.0261-.14528-.05775l.035-.05429L2.56534,3.145c.05719-.00042.114-.00393.16946-.00964A2.27724,2.27724,0,0,0,3.276,3.00911,1.40926,1.40926,0,0,1,3.29,3.14945a1.1574,1.1574,0,0,1-.00264.14909l-.00217.001a.36062.36062,0,0,1-.041.016Zm.1602-.14385-.00161.00643-.003.00947-.00718.01806-.00276.00578-.00283.00536-.01212.01806-.01088.01326-.0095.00924-.00089.00075a1.35605,1.35605,0,0,0-.01324-.27252l.03805-.01523a.50283.50283,0,0,1,.02935.115A.24148.24148,0,0,1,3.39609,3.1742Zm.73872-1.01008.00161.006.00229.01227.002.01858.00012.00458-.00019.00689a.234.234,0,0,1-.00489.03716l-.0015.00631-.00283.00946-.00664.01889a.35832.35832,0,0,1-.0175.03844l-.00337.00616-.00557.0094L4.08651,2.357c-.00908.01386-.01883.02723-.02893.0403a.99131.99131,0,0,1-.13842.14177c-.05052.044-.10385.08493-.15826.12408-.043.03092-.08687.06046-.13084.08993l-.01226.00809-.00159.00105-.00594.00355-.03214.01878c-.02194.01249-.04416.02435-.06664.03583-.03452.01768-.06959.0342-.10509.04987-.01376-.02563-.02858-.05-.04365-.07251a.94113.94113,0,0,0-.11643-.1406,2.01058,2.01058,0,0,0-.09915-.22537q.07557-.05116.14988-.10393c.08261-.03944.16609-.07692.25018-.1134.04722-.02055.09475-.0403.14305-.05836q.04238-.01584.08558-.02956L3.797,2.12l.00217-.00068.00161-.00046.01067-.003.04622-.01181a.77.77,0,0,1,.08692-.01519c.01322-.00152.02645-.00246.03972-.00295l.001,0,.00136,0,.00945.00012.02149.00112a.26784.26784,0,0,1,.03473.00505l.00063.00011.00023.00008.00793.00232.01766.00657.00718.00324.00094.00047.01219.008.01008.00814c-.00522-.00449.0062.007.00828.00962l.00718.01023L4.13,2.15182Z"></path></g>
</svg>
</g><g opacity="1" transform="rotate(0 409.5477 342.1669)">
<svg width="154.9047" height="17.5135" x="409.5477" y="342.1669" version="1.1" preserveAspectRatio="none" viewBox="0.48 -29.2 378.47999999999996 38.16">
  <g transform="matrix(1 0 0 1 0 0)" class="text"><path id="id-6izo4zJp17" d="M9.80 0.40L9.80 0.40Q7.24 0.40 5.56-0.92Q3.88-2.24 3.16-4.16L3.16-4.16L2.28 0L0.48 0L6.68-29.20L8.68-29.20L5.92-16.28Q7.80-18.44 9.98-19.80Q12.16-21.16 14.60-21.16L14.60-21.16Q16.40-21.16 17.72-20.42Q19.04-19.68 19.94-18.48Q20.84-17.28 21.28-15.74Q21.72-14.20 21.72-12.60L21.72-12.60Q21.72-10.04 20.70-7.68Q19.68-5.32 18-3.52Q16.32-1.72 14.18-0.66Q12.04 0.40 9.80 0.40ZM9.80-1.40L9.80-1.40Q11.68-1.40 13.46-2.32Q15.24-3.24 16.60-4.78Q17.96-6.32 18.78-8.28Q19.60-10.24 19.60-12.32L19.60-12.32Q19.60-13.68 19.22-14.96Q18.84-16.24 18.08-17.22Q17.32-18.20 16.24-18.78Q15.16-19.36 13.72-19.36L13.72-19.36Q12.52-19.36 11.38-18.92Q10.24-18.48 9.20-17.76Q8.16-17.04 7.22-16.08Q6.28-15.12 5.44-14.04L5.44-14.04L3.84-6.36Q3.96-5.28 4.48-4.36Q5-3.44 5.80-2.78Q6.60-2.12 7.62-1.76Q8.64-1.40 9.80-1.40Z M36.40 0.40L36.40 0.40Q34.52 0.40 33.06-0.30Q31.60-1 30.58-2.20Q29.56-3.40 29.04-5Q28.52-6.60 28.52-8.40L28.52-8.40Q28.52-10.84 29.46-13.14Q30.40-15.44 32.08-17.22Q33.76-19 36.02-20.08Q38.28-21.16 40.92-21.16L40.92-21.16Q42.16-21.16 43.32-20.80Q44.48-20.44 45.38-19.74Q46.28-19.04 46.82-18Q47.36-16.96 47.36-15.60L47.36-15.60Q47.36-9.60 36.48-9.60L36.48-9.60Q35.20-9.60 33.78-9.64Q32.36-9.68 30.64-9.80L30.64-9.80Q30.60-9.48 30.58-9.12Q30.56-8.76 30.56-8.44L30.56-8.44Q30.56-6.96 30.94-5.64Q31.32-4.32 32.10-3.34Q32.88-2.36 34.06-1.78Q35.24-1.20 36.80-1.20L36.80-1.20Q37.80-1.20 38.86-1.50Q39.92-1.80 40.88-2.34Q41.84-2.88 42.66-3.66Q43.48-4.44 44.04-5.40L44.04-5.40L45.72-4.88Q45-3.68 43.98-2.72Q42.96-1.76 41.74-1.06Q40.52-0.36 39.16 0.02Q37.80 0.40 36.40 0.40ZM40.68-19.52L40.68-19.52Q38.80-19.52 37.22-18.82Q35.64-18.12 34.40-16.98Q33.16-15.84 32.28-14.36Q31.40-12.88 30.96-11.32L30.96-11.32Q32.64-11.20 33.98-11.16Q35.32-11.12 36.60-11.12L36.60-11.12Q39.08-11.12 40.78-11.46Q42.48-11.80 43.52-12.40Q44.56-13 45.02-13.82Q45.48-14.64 45.48-15.64L45.48-15.64Q45.48-16.64 45.06-17.38Q44.64-18.12 43.98-18.60Q43.32-19.08 42.44-19.30Q41.56-19.52 40.68-19.52Z M75.60 0.40L75.60 0.40Q73.72 0.40 72.26-0.30Q70.80-1 69.78-2.20Q68.76-3.40 68.24-5Q67.72-6.60 67.72-8.40L67.72-8.40Q67.72-10.84 68.66-13.14Q69.60-15.44 71.28-17.22Q72.96-19 75.22-20.08Q77.48-21.16 80.12-21.16L80.12-21.16Q81.36-21.16 82.52-20.80Q83.68-20.44 84.58-19.74Q85.48-19.04 86.02-18Q86.56-16.96 86.56-15.60L86.56-15.60Q86.56-9.60 75.68-9.60L75.68-9.60Q74.40-9.60 72.98-9.64Q71.56-9.68 69.84-9.80L69.84-9.80Q69.80-9.48 69.78-9.12Q69.76-8.76 69.76-8.44L69.76-8.44Q69.76-6.96 70.14-5.64Q70.52-4.32 71.30-3.34Q72.08-2.36 73.26-1.78Q74.44-1.20 76-1.20L76-1.20Q77-1.20 78.06-1.50Q79.12-1.80 80.08-2.34Q81.04-2.88 81.86-3.66Q82.68-4.44 83.24-5.40L83.24-5.40L84.92-4.88Q84.20-3.68 83.18-2.72Q82.16-1.76 80.94-1.06Q79.72-0.36 78.36 0.02Q77 0.40 75.60 0.40ZM79.88-19.52L79.88-19.52Q78-19.52 76.42-18.82Q74.84-18.12 73.60-16.98Q72.36-15.84 71.48-14.36Q70.60-12.88 70.16-11.32L70.16-11.32Q71.84-11.20 73.18-11.16Q74.52-11.12 75.80-11.12L75.80-11.12Q78.28-11.12 79.98-11.46Q81.68-11.80 82.72-12.40Q83.76-13 84.22-13.82Q84.68-14.64 84.68-15.64L84.68-15.64Q84.68-16.64 84.26-17.38Q83.84-18.12 83.18-18.60Q82.52-19.08 81.64-19.30Q80.76-19.52 79.88-19.52Z M100.28 0.40L100.28 0.40Q98.56 0.40 97.18-0.32Q95.80-1.04 94.84-2.24Q93.88-3.44 93.38-5.02Q92.88-6.60 92.88-8.36L92.88-8.36Q92.88-10.80 93.84-13.10Q94.80-15.40 96.42-17.20Q98.04-19 100.12-20.08Q102.20-21.16 104.48-21.16L104.48-21.16Q105.80-21.16 106.86-20.76Q107.92-20.36 108.76-19.70Q109.60-19.04 110.20-18.16Q110.80-17.28 111.16-16.28L111.16-16.28L112.12-20.80L114.16-20.80L110.32-2.88Q110.24-2.56 110.24-2.40L110.24-2.40Q110.24-1.80 110.92-1.80L110.92-1.80L110.52 0Q110.32 0.04 110.18 0.06Q110.04 0.08 109.92 0.08L109.92 0.08Q109.12 0.08 108.70-0.32Q108.28-0.72 108.28-1.36L108.28-1.36Q108.28-1.48 108.30-1.66Q108.32-1.84 108.38-2.14Q108.44-2.44 108.52-2.92Q108.60-3.40 108.76-4.16L108.76-4.16Q107.12-2.08 104.84-0.84Q102.56 0.40 100.28 0.40ZM101-1.40L101-1.40Q102.08-1.40 103.36-1.86Q104.64-2.32 105.82-3.08Q107-3.84 107.92-4.86Q108.84-5.88 109.20-7L109.20-7L110.64-13.84Q110.48-14.96 109.94-15.96Q109.40-16.96 108.58-17.72Q107.76-18.48 106.72-18.92Q105.68-19.36 104.48-19.36L104.48-19.36Q102.56-19.36 100.84-18.40Q99.12-17.44 97.82-15.90Q96.52-14.36 95.74-12.44Q94.96-10.52 94.96-8.60L94.96-8.60Q94.96-7.16 95.40-5.84Q95.84-4.52 96.64-3.54Q97.44-2.56 98.56-1.98Q99.68-1.40 101-1.40Z M126.12 0.40L126.12 0.40Q123.84 0.40 121.90-0.40Q119.96-1.20 118.76-2.80L118.76-2.80L120-4.16Q121.32-2.64 122.86-1.92Q124.40-1.20 126.44-1.20L126.44-1.20Q127.88-1.20 129.10-1.56Q130.32-1.92 131.22-2.56Q132.12-3.20 132.62-4.12Q133.12-5.04 133.12-6.20L133.12-6.20Q133.12-7.72 131.72-8.44Q130.32-9.16 127.72-9.84L127.72-9.84Q126.32-10.20 125.28-10.56Q124.24-10.92 123.54-11.38Q122.84-11.84 122.48-12.48Q122.12-13.12 122.12-14.04L122.12-14.04Q122.12-15.76 122.84-17.10Q123.56-18.44 124.76-19.34Q125.96-20.24 127.54-20.70Q129.12-21.16 130.84-21.16L130.84-21.16Q133.16-21.16 134.78-20.34Q136.40-19.52 137.08-18.24L137.08-18.24L135.76-17.16Q135.08-18.36 133.62-18.96Q132.16-19.56 130.36-19.56L130.36-19.56Q129.12-19.56 128-19.26Q126.88-18.96 126.02-18.34Q125.16-17.72 124.64-16.78Q124.12-15.84 124.12-14.56L124.12-14.56Q124.12-13.88 124.40-13.42Q124.68-12.96 125.22-12.62Q125.76-12.28 126.60-12.02Q127.44-11.76 128.56-11.48L128.56-11.48Q130.12-11.08 131.34-10.68Q132.56-10.28 133.42-9.74Q134.28-9.20 134.72-8.46Q135.16-7.72 135.16-6.68L135.16-6.68Q135.16-5.12 134.48-3.82Q133.80-2.52 132.60-1.58Q131.40-0.64 129.74-0.12Q128.08 0.40 126.12 0.40Z M140.28 8.96L140.04 7.32Q141.28 7.12 142.14 6.78Q143 6.44 143.72 5.88Q144.44 5.32 145.10 4.46Q145.76 3.60 146.56 2.36L146.56 2.36L148 0.20L143.56-20.80L145.64-20.80L149.40-1.96L151.32-5Q153.12-7.88 154.34-10.02Q155.56-12.16 156.44-13.96Q157.32-15.76 157.92-17.38Q158.52-19 159-20.80L159-20.80L161-20.80Q160.44-18.88 159.84-17.22Q159.24-15.56 158.34-13.70Q157.44-11.84 156.10-9.56Q154.76-7.28 152.76-4.12L152.76-4.12L149.48 1.04Q148.08 3.28 146.98 4.74Q145.88 6.20 144.84 7.10Q143.80 8 142.72 8.42Q141.64 8.84 140.28 8.96L140.28 8.96Z M165.32 3.24L164.24 3.24L165.48 0.08L164.76 0.08L165.48-3.40L167.52-3.40L166.76 0.08L165.32 3.24Z M200.04 0.40L200.04 0.40Q198.16 0.40 196.70-0.30Q195.24-1 194.22-2.20Q193.20-3.40 192.68-5Q192.16-6.60 192.16-8.40L192.16-8.40Q192.16-10.84 193.10-13.14Q194.04-15.44 195.72-17.22Q197.40-19 199.66-20.08Q201.92-21.16 204.56-21.16L204.56-21.16Q205.80-21.16 206.96-20.80Q208.12-20.44 209.02-19.74Q209.92-19.04 210.46-18Q211-16.96 211-15.60L211-15.60Q211-9.60 200.12-9.60L200.12-9.60Q198.84-9.60 197.42-9.64Q196.00-9.68 194.28-9.80L194.28-9.80Q194.24-9.48 194.22-9.12Q194.20-8.76 194.20-8.44L194.20-8.44Q194.20-6.96 194.58-5.64Q194.96-4.32 195.74-3.34Q196.52-2.36 197.70-1.78Q198.88-1.20 200.44-1.20L200.44-1.20Q201.44-1.20 202.50-1.50Q203.56-1.80 204.52-2.34Q205.48-2.88 206.30-3.66Q207.12-4.44 207.68-5.40L207.68-5.40L209.36-4.88Q208.64-3.68 207.62-2.72Q206.60-1.76 205.38-1.06Q204.16-0.36 202.80 0.02Q201.44 0.40 200.04 0.40ZM204.32-19.52L204.32-19.52Q202.44-19.52 200.86-18.82Q199.28-18.12 198.04-16.98Q196.80-15.84 195.92-14.36Q195.04-12.88 194.60-11.32L194.60-11.32Q196.28-11.20 197.62-11.16Q198.96-11.12 200.24-11.12L200.24-11.12Q202.72-11.12 204.42-11.46Q206.12-11.80 207.16-12.40Q208.20-13 208.66-13.82Q209.12-14.64 209.12-15.64L209.12-15.64Q209.12-16.64 208.70-17.38Q208.28-18.12 207.62-18.60Q206.96-19.08 206.08-19.30Q205.20-19.52 204.32-19.52Z M221.52 0L218.20-20.80L220.28-20.80L223.08-2Q226.72-6.48 229.26-11.40Q231.80-16.32 233.08-20.80L233.08-20.80L235.00-20.80Q233.48-15.56 230.66-10.32Q227.84-5.08 223.60 0L223.60 0L221.52 0Z M247.52 0.40L247.52 0.40Q245.64 0.40 244.18-0.30Q242.72-1 241.70-2.20Q240.68-3.40 240.16-5Q239.64-6.60 239.64-8.40L239.64-8.40Q239.64-10.84 240.58-13.14Q241.52-15.44 243.20-17.22Q244.88-19 247.14-20.08Q249.40-21.16 252.04-21.16L252.04-21.16Q253.28-21.16 254.44-20.80Q255.60-20.44 256.50-19.74Q257.40-19.04 257.94-18Q258.48-16.96 258.48-15.60L258.48-15.60Q258.48-9.60 247.60-9.60L247.60-9.60Q246.32-9.60 244.90-9.64Q243.48-9.68 241.76-9.80L241.76-9.80Q241.72-9.48 241.70-9.12Q241.68-8.76 241.68-8.44L241.68-8.44Q241.68-6.96 242.06-5.64Q242.44-4.32 243.22-3.34Q244.00-2.36 245.18-1.78Q246.36-1.20 247.92-1.20L247.92-1.20Q248.92-1.20 249.98-1.50Q251.04-1.80 252.00-2.34Q252.96-2.88 253.78-3.66Q254.60-4.44 255.16-5.40L255.16-5.40L256.84-4.88Q256.12-3.68 255.10-2.72Q254.08-1.76 252.86-1.06Q251.64-0.36 250.28 0.02Q248.92 0.40 247.52 0.40ZM251.80-19.52L251.80-19.52Q249.92-19.52 248.34-18.82Q246.76-18.12 245.52-16.98Q244.28-15.84 243.40-14.36Q242.52-12.88 242.08-11.32L242.08-11.32Q243.76-11.20 245.10-11.16Q246.44-11.12 247.72-11.12L247.72-11.12Q250.20-11.12 251.90-11.46Q253.60-11.80 254.64-12.40Q255.68-13 256.14-13.82Q256.60-14.64 256.60-15.64L256.60-15.64Q256.60-16.64 256.18-17.38Q255.76-18.12 255.10-18.60Q254.44-19.08 253.56-19.30Q252.68-19.52 251.80-19.52Z M264.20 0L268.60-20.80L270.52-20.80L269.40-15.68Q271.08-18.08 273.26-19.46Q275.44-20.84 277.48-20.84L277.48-20.84Q277.88-20.84 278.04-20.80L278.04-20.80L277.64-19Q274.96-18.92 272.66-17.34Q270.36-15.76 268.96-13L268.96-13L266.20 0L264.20 0Z M279.84 8.96L279.60 7.32Q280.84 7.12 281.70 6.78Q282.56 6.44 283.28 5.88Q284.00 5.32 284.66 4.46Q285.32 3.60 286.12 2.36L286.12 2.36L287.56 0.20L283.12-20.80L285.20-20.80L288.96-1.96L290.88-5Q292.68-7.88 293.90-10.02Q295.12-12.16 296.00-13.96Q296.88-15.76 297.48-17.38Q298.08-19 298.56-20.80L298.56-20.80L300.56-20.80Q300.00-18.88 299.40-17.22Q298.80-15.56 297.90-13.70Q297.00-11.84 295.66-9.56Q294.32-7.28 292.32-4.12L292.32-4.12L289.04 1.04Q287.64 3.28 286.54 4.74Q285.44 6.20 284.40 7.10Q283.36 8 282.28 8.42Q281.20 8.84 279.84 8.96L279.84 8.96Z M312.72 0.40L312.72 0.40Q310.96 0.40 309.56-0.32Q308.16-1.04 307.20-2.24Q306.24-3.44 305.74-5.02Q305.24-6.60 305.24-8.36L305.24-8.36Q305.24-10.80 306.20-13.10Q307.16-15.40 308.78-17.20Q310.40-19 312.50-20.08Q314.60-21.16 316.88-21.16L316.88-21.16Q318.16-21.16 319.22-20.76Q320.28-20.36 321.12-19.70Q321.96-19.04 322.56-18.16Q323.16-17.28 323.52-16.28L323.52-16.28L326.24-29.20L328.28-29.20L322.68-2.88Q322.60-2.48 322.60-2.40L322.60-2.40Q322.60-1.80 323.28-1.80L323.28-1.80L322.88 0Q322.60 0.04 322.40 0.04Q322.20 0.04 322.00 0.04L322.00 0.04Q320.64-0.16 320.64-1.40L320.64-1.40Q320.64-1.52 320.66-1.66Q320.68-1.80 320.72-2.10Q320.76-2.40 320.86-2.88Q320.96-3.36 321.12-4.16L321.12-4.16Q319.48-2.08 317.20-0.84Q314.92 0.40 312.72 0.40ZM313.48-1.40L313.48-1.40Q314.48-1.40 315.74-1.84Q317.00-2.28 318.16-3.06Q319.32-3.84 320.26-4.84Q321.20-5.84 321.56-7L321.56-7L323.00-13.84Q322.84-14.96 322.28-15.98Q321.72-17 320.90-17.74Q320.08-18.48 319.06-18.92Q318.04-19.36 316.96-19.36L316.96-19.36Q315.00-19.36 313.24-18.40Q311.48-17.44 310.16-15.90Q308.84-14.36 308.08-12.46Q307.32-10.56 307.32-8.68L307.32-8.68Q307.32-7.20 307.76-5.88Q308.20-4.56 309.00-3.56Q309.80-2.56 310.94-1.98Q312.08-1.40 313.48-1.40Z M340.28 0.40L340.28 0.40Q338.56 0.40 337.18-0.32Q335.80-1.04 334.84-2.24Q333.88-3.44 333.38-5.02Q332.88-6.60 332.88-8.36L332.88-8.36Q332.88-10.80 333.84-13.10Q334.80-15.40 336.42-17.20Q338.04-19 340.12-20.08Q342.20-21.16 344.48-21.16L344.48-21.16Q345.80-21.16 346.86-20.76Q347.92-20.36 348.76-19.70Q349.60-19.04 350.20-18.16Q350.80-17.28 351.16-16.28L351.16-16.28L352.12-20.80L354.16-20.80L350.32-2.88Q350.24-2.56 350.24-2.40L350.24-2.40Q350.24-1.80 350.92-1.80L350.92-1.80L350.52 0Q350.32 0.04 350.18 0.06Q350.04 0.08 349.92 0.08L349.92 0.08Q349.12 0.08 348.70-0.32Q348.28-0.72 348.28-1.36L348.28-1.36Q348.28-1.48 348.30-1.66Q348.32-1.84 348.38-2.14Q348.44-2.44 348.52-2.92Q348.60-3.40 348.76-4.16L348.76-4.16Q347.12-2.08 344.84-0.84Q342.56 0.40 340.28 0.40ZM341.00-1.40L341.00-1.40Q342.08-1.40 343.36-1.86Q344.64-2.32 345.82-3.08Q347.00-3.84 347.92-4.86Q348.84-5.88 349.20-7L349.20-7L350.64-13.84Q350.48-14.96 349.94-15.96Q349.40-16.96 348.58-17.72Q347.76-18.48 346.72-18.92Q345.68-19.36 344.48-19.36L344.48-19.36Q342.56-19.36 340.84-18.40Q339.12-17.44 337.82-15.90Q336.52-14.36 335.74-12.44Q334.96-10.52 334.96-8.60L334.96-8.60Q334.96-7.16 335.40-5.84Q335.84-4.52 336.64-3.54Q337.44-2.56 338.56-1.98Q339.68-1.40 341.00-1.40Z M358.24 8.96L358.00 7.32Q359.24 7.12 360.10 6.78Q360.96 6.44 361.68 5.88Q362.40 5.32 363.06 4.46Q363.72 3.60 364.52 2.36L364.52 2.36L365.96 0.20L361.52-20.80L363.60-20.80L367.36-1.96L369.28-5Q371.08-7.88 372.30-10.02Q373.52-12.16 374.40-13.96Q375.28-15.76 375.88-17.38Q376.48-19 376.96-20.80L376.96-20.80L378.96-20.80Q378.40-18.88 377.80-17.22Q377.20-15.56 376.30-13.70Q375.40-11.84 374.06-9.56Q372.72-7.28 370.72-4.12L370.72-4.12L367.44 1.04Q366.04 3.28 364.94 4.74Q363.84 6.20 362.80 7.10Q361.76 8 360.68 8.42Q359.60 8.84 358.24 8.96L358.24 8.96Z"/></g>
</svg>
</g><g opacity="1" transform="rotate(0 437 159.8948)">
<svg width="100" height="90.0111" x="437" y="159.8948" version="1.1" preserveAspectRatio="none" viewBox="2.5430774688720703 7.331667423248291 94.95692443847656 85.47173309326172">
  <g transform="matrix(1 0 0 1 0 0)" class="afMs7LIazgcolors-0"><path d="M22.5,92.5c0-11.2,0.1-21.2,0-31.2c0-4.3-0.3-8.7-0.9-13c-0.2-1.5-1.5-3.7-2.8-4.1C15,43,11,42.1,7.1,42  c-4.4-0.1-4.9-0.5-4.4-4.9c0.8-7.2,3-14,7.8-19.3c3-3.3,7.3-5.5,11.2-8c0.8-0.6,2-0.5,3-0.9c6.8-3,10.8-1.8,14.4,4.5  c4.5,7.8,11.9,8.2,18.7,1.7c2.3-2.2,3.3-5.8,7.7-6.5c5.4-0.8,10.3,0.3,14.7,2.7c10.3,5.6,15,15,16.4,26.4c0.2,1.6,0.6,3.2,0.9,5  c-4.8,0.8-9.5,1.8-14.3,2.2c-3.4,0.2-4.3,1.6-4.2,4.7c0.4,12,0.5,23.9,0.9,35.9c0.2,5.3-1.9,7.4-7,7.3c-11.1-0.2-22.1-0.2-33.2-0.2  C34,92.5,28.4,92.5,22.5,92.5z M75.5,34.4c2.4-0.6,3.7,0.1,3.7,3c0,1.4,0.1,3.2,0.9,4.1c1.3,1.5,11.6-0.4,12-2.3  c0.4-1.6-0.6-3.6-0.9-5.4c-2.6-14-8.2-19.7-21.7-22.3c-0.4,0.7-1,1.4-1.3,2.3c-2.1,8-8.8,10.7-15.5,12.8C46,28.9,34.6,23,32.3,15.5  c-1.1-3.5-2.9-6-7.1-3.1c-2.9,2-6.3,3.2-8.8,5.4c-6.2,5.4-9.7,12.3-9.6,20.1c3.3,1.3,6,2.4,8.7,3.3c4.2,1.5,6.3-0.2,6-4.6  c-0.1-1.3-0.3-2.5-0.4-3.8c0.5-0.2,1-0.5,1.6-0.7c0.9,1.4,2.4,2.8,2.5,4.4c0.5,4.6,0.6,9.2,0.7,13.8c0.2,7.8,0.6,15.6,0.3,23.4  c-0.3,10.1,0.4,10.9,10.6,11c9.4,0.1,18.9,0.6,28.3,0.8c11.6,0.2,10.4,1.5,10.4-10.5C75.4,61.5,75.5,48.1,75.5,34.4z M28.7,88.9  c0,0.2,0,0.4,0,0.6c7.8,0,15.6,0,23.5,0c0-0.2,0-0.4,0-0.6C44.3,88.9,36.5,88.9,28.7,88.9z"></path></g>
</svg>
</g></svg>